<?xml version="1.0" standalone="no"?>
<!DOCTYPE svg PUBLIC "-//W3C//DTD SVG 20010904//EN"
 "http://www.w3.org/TR/2001/REC-SVG-20010904/DTD/svg10.dtd">
<svg version="1.0" xmlns="http://www.w3.org/2000/svg"
 width="260.000000pt" height="260.000000pt" viewBox="0 0 260.000000 260.000000"
 preserveAspectRatio="xMidYMid meet">
<metadata>
Created by potrace 1.14, written by Peter Selinger 2001-2017
</metadata>
<g transform="translate(0.000000,260.000000) scale(0.100000,-0.100000)"
fill="#000000" stroke="none">
<path d="M276 2554 c-66 -8 -123 -17 -128 -22 -7 -7 118 -272 468 -991 52
-106 94 -198 94 -205 0 -10 -58 -142 -405 -920 -81 -180 -143 -332 -138 -337
20 -20 171 -33 393 -33 251 -1 321 7 400 47 41 20 47 28 73 97 22 59 201 571
223 640 3 8 58 -120 123 -285 143 -362 156 -394 184 -423 29 -31 126 -59 254
-73 177 -19 606 2 637 31 8 8 -72 164 -475 927 -77 145 -139 267 -139 272 0 5
60 133 134 283 308 627 467 960 462 965 -16 16 -241 36 -411 37 -205 0 -287
-10 -371 -48 -50 -23 -51 -24 -115 -157 -36 -74 -103 -218 -149 -321 -47 -103
-88 -184 -91 -180 -4 4 -48 108 -99 232 -51 124 -105 253 -121 287 -16 34 -29
66 -29 71 0 21 -63 65 -119 82 -132 41 -415 52 -655 24z"/>
</g>
</svg>
